<svg width="178" height="36" viewBox="0 0 178 36" fill="none" xmlns="http://www.w3.org/2000/svg">
<g clip-path="url(#clip0_1_56)">
<path d="M27.7999 0V7.09909H21.3757V35.6473H13.7605V7.09909H7.30086V0H27.7999Z" fill="#1e202a"/>
<path d="M35.331 24.2887L34.2684 24.6281C32.5443 25.1847 30.7609 25.5339 28.9555 25.6684L27.0251 25.7175L34.0205 35.6205H43.4155L35.331 24.2887Z" fill="#1e202a"/>
<path d="M12.2994 30.8476L10.0326 30.7136L9.67396 28.6598L8.54496 30.6288L6.15857 30.4859L7.81001 31.9147L6.67658 33.9551L8.83717 32.8166L10.9712 34.2051L10.3115 32.1335L12.2994 30.8476Z" fill="#1e202a"/>
<path d="M5.88408 23.7842L3.77219 23.6592L3.43128 21.8063L2.38197 23.5788L0.159393 23.4493L1.70457 24.7397L0.340919 26.5524L2.6609 25.5523L4.33447 26.7846L4.03341 24.9361L5.88408 23.7842Z" fill="#1e202a"/>
<path d="M5.15797 16.1047L3.25417 15.9931L2.94425 14.4125L2.00563 15.9216L0 15.8055L1.39465 16.9084L0.17267 18.4532L2.258 17.6049L3.77218 18.663L3.49325 17.0869L5.15797 16.1047Z" fill="#1e202a"/>
<path d="M8.71764 10.162L7.06178 10.0637L6.78285 8.81805L5.97262 10.0012L4.22821 9.89855L5.44576 10.7781L4.39203 11.9881L6.20285 11.3318L7.52223 12.1711L7.27429 10.9255L8.71764 10.162Z" fill="#1e202a"/>
<path d="M41.3523 7.36698C40.712 5.87434 39.7519 4.5432 38.5409 3.46917C37.2434 2.32832 35.7274 1.4682 34.0869 0.942071C32.2939 0.366457 30.4254 0.0654496 28.5437 0.0491028C28.5437 2.41993 28.5437 4.75505 28.5437 7.13927C29.8948 7.23118 31.1921 7.70807 32.2849 8.51445C33.4656 9.43421 34.0559 10.7737 34.0559 12.5328V12.6355C34.0681 13.3628 33.9227 14.0841 33.6298 14.7488C33.3369 15.4136 32.9036 16.0058 32.3602 16.4842C31.2268 17.526 29.6358 18.0454 27.5874 18.0424H22.0752C22.0752 20.382 22.0752 22.6814 22.0752 25.0165H27.3218C29.3005 25.0367 31.2722 24.7767 33.1793 24.2441C34.9059 23.7654 36.527 22.9609 37.9565 21.8732C39.3038 20.8244 40.3957 19.479 41.1487 17.9397C41.9581 16.239 42.3585 14.3697 42.3175 12.4837V12.381C42.3437 10.6603 42.015 8.95285 41.3523 7.36698Z" fill="#1e202a"/>
<path d="M49.2952 2.22348H52.5671C53.0047 2.217 53.4402 2.28493 53.8554 2.4244C54.2101 2.54882 54.5367 2.74309 54.8162 2.9959C55.0793 3.24643 55.2862 3.55093 55.4228 3.88887C55.5678 4.25039 55.6401 4.63742 55.6353 5.02739V5.04973C55.644 5.47583 55.5577 5.89846 55.3829 6.28648C55.2212 6.63337 54.9836 6.9387 54.6878 7.17945C54.3823 7.42227 54.0337 7.60412 53.6606 7.71524C53.2496 7.83756 52.8229 7.89775 52.3944 7.89383H51.0662V10.3182H49.2952V2.22348ZM52.4519 6.29988C52.8281 6.32126 53.1979 6.19485 53.4835 5.94716C53.6012 5.8358 53.6943 5.70074 53.7568 5.55075C53.8194 5.40076 53.85 5.23919 53.8466 5.07651V5.0542C53.8574 4.88235 53.8287 4.71031 53.7627 4.55152C53.6966 4.39273 53.595 4.25151 53.4658 4.1389C53.1612 3.91844 52.7909 3.80972 52.4165 3.83082H51.0573V6.29988H52.4519Z" fill="#1e202a"/>
<path d="M56.8351 1.8663H58.5751V10.3048H56.8351V1.8663Z" fill="#1e202a"/>
<path d="M61.9577 10.4209C61.6814 10.4215 61.4067 10.3793 61.143 10.2959C60.897 10.2218 60.6682 10.0989 60.4701 9.93428C60.2822 9.77038 60.1313 9.56792 60.0273 9.34045C59.9133 9.0853 59.8573 8.80766 59.8635 8.52786V8.50106C59.8541 8.19319 59.9162 7.88738 60.045 7.60809C60.1643 7.36643 60.3388 7.15679 60.5542 6.99641C60.7891 6.8276 61.0535 6.70491 61.3334 6.63476C61.6597 6.54736 61.9964 6.50531 62.334 6.50974C62.6086 6.50788 62.8828 6.5318 63.1531 6.58118C63.3842 6.62642 63.6121 6.68759 63.8349 6.76424V6.66155C63.8454 6.50482 63.8211 6.34771 63.7636 6.20171C63.7062 6.0557 63.6171 5.9245 63.5029 5.8177C63.2184 5.60618 62.868 5.50476 62.5155 5.53194C62.2182 5.52768 61.9213 5.55613 61.63 5.61677C61.3561 5.68132 61.0868 5.76486 60.8243 5.8668L60.3815 4.52735C60.7203 4.37772 61.0714 4.25821 61.4308 4.17017C61.8663 4.06971 62.3124 4.02323 62.759 4.03176C63.1764 4.02104 63.5925 4.08142 63.9899 4.21035C64.3061 4.31314 64.5941 4.48895 64.8311 4.72381C65.0658 4.96054 65.2391 5.25188 65.3358 5.57212C65.4464 5.9366 65.5001 6.31617 65.4952 6.69727V10.2691H63.8128V9.59942C63.597 9.83866 63.3368 10.0328 63.0468 10.1709C62.7062 10.3334 62.3345 10.4188 61.9577 10.4209ZM62.4845 9.20651C62.8394 9.22512 63.1898 9.11943 63.4763 8.90736C63.595 8.81496 63.6906 8.6957 63.7552 8.5592C63.8198 8.42269 63.8517 8.27277 63.8482 8.12156V7.80901C63.6842 7.73736 63.5137 7.68204 63.339 7.64382C63.1414 7.59956 62.9393 7.57858 62.7369 7.5813C62.4266 7.56276 62.118 7.63901 61.8514 7.80009C61.748 7.86851 61.6642 7.96303 61.6083 8.07426C61.5524 8.18549 61.5263 8.30954 61.5326 8.43409V8.45642C61.5282 8.56317 61.5497 8.6694 61.5952 8.76588C61.6407 8.86237 61.7089 8.94619 61.7939 9.01006C61.9948 9.14654 62.2335 9.21532 62.4757 9.20651H62.4845Z" fill="#1e202a"/>
<path d="M66.9872 4.09873H68.7272V4.99169C68.8265 4.85952 68.9345 4.73422 69.0504 4.61665C69.1706 4.49622 69.3026 4.38851 69.4445 4.29518C69.7675 4.09349 70.1405 3.98822 70.5203 3.99157C70.8058 3.97467 71.0915 4.02064 71.3575 4.12626C71.6236 4.23189 71.8637 4.39466 72.0611 4.60326C72.4465 5.07684 72.6409 5.67937 72.6057 6.29096V10.3093H70.8657V6.86693C70.8895 6.53121 70.792 6.19815 70.5912 5.92931C70.4932 5.82092 70.3723 5.73615 70.2374 5.68127C70.1025 5.6264 69.9571 5.60283 69.812 5.61231C69.665 5.60395 69.5179 5.62797 69.3811 5.68272C69.2442 5.73746 69.1208 5.82161 69.0194 5.92931C68.8077 6.19322 68.7033 6.52834 68.7272 6.86693V10.3093H66.9872V4.09873Z" fill="#1e202a"/>
<path d="M80.0659 10.4209C79.7088 10.4204 79.3553 10.3491 79.0254 10.2111C78.6909 10.0702 78.3893 9.86035 78.14 9.59494C77.8708 9.30284 77.659 8.96197 77.5157 8.59035C77.3543 8.15207 77.2762 7.68707 77.2855 7.21964V7.19732C77.2765 6.73138 77.3547 6.2679 77.5157 5.83108C77.657 5.45947 77.8674 5.1185 78.1355 4.82649C78.3842 4.56026 78.686 4.35025 79.021 4.21034C79.3552 4.07144 79.7133 4.00014 80.0748 4.00049C80.4763 3.98571 80.8742 4.0814 81.2259 4.27731C81.5117 4.45172 81.7686 4.67017 81.9874 4.92472V1.8663H83.7274V10.3048H81.9874V9.41188C81.7772 9.69936 81.5142 9.94341 81.2126 10.1307C80.8653 10.3349 80.4677 10.4355 80.0659 10.4209ZM80.5086 8.92968C80.7067 8.93254 80.9031 8.8921 81.0842 8.81118C81.2654 8.73025 81.427 8.61075 81.5579 8.46087C81.6966 8.30232 81.8047 8.11911 81.8767 7.92062C81.9583 7.69619 81.9989 7.45867 81.9963 7.21964V7.19732C81.9992 6.95971 81.9587 6.7236 81.8767 6.50081C81.8035 6.30156 81.6955 6.11709 81.5579 5.9561C81.4257 5.8112 81.2662 5.69433 81.0886 5.61231C80.9055 5.5327 80.7081 5.49164 80.5086 5.49164C80.3092 5.49164 80.1118 5.5327 79.9287 5.61231C79.7498 5.69424 79.5888 5.81108 79.4549 5.9561C79.3143 6.11396 79.2046 6.29728 79.1317 6.49634C79.0454 6.71959 79.0033 6.95774 79.0077 7.19732V7.22411C79.0044 7.4636 79.0465 7.70153 79.1317 7.92509C79.2036 8.12464 79.3134 8.30814 79.4549 8.46533C79.5874 8.61307 79.7487 8.73163 79.9287 8.81359C80.1131 8.89361 80.3123 8.93319 80.5131 8.92968H80.5086Z" fill="#1e202a"/>
<path d="M88.1815 10.4433C87.7458 10.4463 87.3134 10.3676 86.9064 10.2111C86.5254 10.066 86.1786 9.84249 85.888 9.55475C85.5999 9.26476 85.3712 8.92037 85.2151 8.54124C85.051 8.12989 84.9698 7.68974 84.976 7.24642V7.2241C84.9745 6.79879 85.0495 6.37673 85.1973 5.97841C85.3401 5.59983 85.5518 5.25153 85.8216 4.9515C86.0924 4.65996 86.4174 4.42483 86.778 4.25944C87.1652 4.08616 87.5851 3.99935 88.0088 4.00496C88.4666 3.99431 88.9209 4.08898 89.337 4.28178C89.6987 4.45848 90.0176 4.71299 90.2712 5.0274C90.5215 5.34525 90.7079 5.70922 90.8202 6.09897C90.9375 6.50973 90.9971 6.93505 90.9973 7.36251C90.9973 7.43395 90.9973 7.50539 90.9973 7.58576C90.9973 7.66612 90.9973 7.74203 90.9973 7.82686H86.7248C86.7875 8.17795 86.9728 8.49477 87.2473 8.71983C87.5307 8.92831 87.8751 9.03518 88.2257 9.02343C88.4926 9.02758 88.7577 8.97748 89.005 8.8761C89.2654 8.75314 89.5046 8.58882 89.7134 8.38942L90.7095 9.28239C90.4243 9.63972 90.0645 9.92936 89.6558 10.1307C89.1956 10.3504 88.6904 10.4575 88.1815 10.4433ZM89.3016 6.72404C89.2662 6.37145 89.1222 6.03889 88.8898 5.77303C88.7769 5.65186 88.6393 5.5568 88.4864 5.49437C88.3335 5.43195 88.1691 5.40363 88.0043 5.41138C87.84 5.40394 87.6761 5.43196 87.5234 5.49356C87.3707 5.55515 87.2328 5.64891 87.1189 5.76856C86.8793 6.03485 86.725 6.36787 86.6761 6.72404H89.3016Z" fill="#1e202a"/>
<path d="M95.9073 2.22347H99.591C100.015 2.19433 100.44 2.2521 100.841 2.3933C101.242 2.5345 101.611 2.75621 101.924 3.04501C102.158 3.28875 102.339 3.57813 102.457 3.89529C102.575 4.21245 102.627 4.55064 102.61 4.88898V4.91577C102.635 5.48569 102.468 6.04726 102.137 6.50972C101.815 6.92059 101.383 7.23035 100.893 7.40269L102.85 10.2914H100.791L99.0729 7.70629H97.6916V10.2914H95.9206L95.9073 2.22347ZM99.4493 6.14807C99.8098 6.17348 100.167 6.06201 100.45 5.83554C100.566 5.73247 100.658 5.6043 100.719 5.46053C100.779 5.31677 100.807 5.16109 100.8 5.00507C100.811 4.84168 100.783 4.67798 100.719 4.52741C100.655 4.37684 100.557 4.24369 100.432 4.13889C100.134 3.93154 99.7754 3.83094 99.4139 3.85315H97.665V6.1704L99.4493 6.14807Z" fill="#1e202a"/>
<path d="M106.905 10.4433C106.468 10.4462 106.034 10.3674 105.626 10.2111C105.246 10.0639 104.899 9.84062 104.607 9.55478C104.32 9.26484 104.093 8.92036 103.939 8.54126C103.775 8.12991 103.693 7.68976 103.7 7.24645V7.22413C103.698 6.79882 103.773 6.37676 103.921 5.97844C104.064 5.59985 104.275 5.25156 104.545 4.95153C104.823 4.64761 105.162 4.40623 105.539 4.24313C105.916 4.08004 106.322 3.99889 106.732 4.00498C107.19 3.9948 107.644 4.08945 108.061 4.2818C108.421 4.45856 108.739 4.71311 108.99 5.02742C109.242 5.34491 109.43 5.70891 109.544 6.09899C109.661 6.50976 109.721 6.93508 109.721 7.36254C109.721 7.43398 109.721 7.50541 109.721 7.58578C109.721 7.66615 109.721 7.74205 109.721 7.82689H105.453C105.514 8.17868 105.699 8.49613 105.975 8.71985C106.259 8.92834 106.603 9.03521 106.954 9.02346C107.221 9.02761 107.486 8.9775 107.733 8.87613C107.993 8.75212 108.232 8.5879 108.441 8.38945L109.438 9.28241C109.152 9.63974 108.793 9.92938 108.384 10.1307C107.922 10.3506 107.416 10.4577 106.905 10.4433ZM108.025 6.72407C107.99 6.37148 107.846 6.03891 107.614 5.77306C107.376 5.54067 107.059 5.41068 106.728 5.41068C106.397 5.41068 106.08 5.54067 105.843 5.77306C105.603 6.03934 105.449 6.37236 105.4 6.72854L108.025 6.72407Z" fill="#1e202a"/>
<path d="M113.909 10.4433C113.47 10.4474 113.035 10.3608 112.63 10.1888C112.254 10.0302 111.912 9.7983 111.625 9.50639C111.338 9.21449 111.11 8.86829 110.956 8.48766C110.795 8.0942 110.712 7.67234 110.713 7.24644V7.22412C110.712 6.79681 110.795 6.37354 110.956 5.97842C111.11 5.59606 111.335 5.24734 111.62 4.95152C111.908 4.65563 112.251 4.42038 112.63 4.25946C113.042 4.08617 113.485 3.99958 113.931 4.00497C114.391 3.97896 114.851 4.05915 115.275 4.23944C115.699 4.41973 116.077 4.69534 116.38 5.04527L115.317 6.19721C115.135 6.00492 114.928 5.83822 114.702 5.70161C114.461 5.57228 114.191 5.50915 113.918 5.51855C113.71 5.51494 113.504 5.56084 113.316 5.6525C113.138 5.73998 112.98 5.86303 112.851 6.01415C112.714 6.17082 112.609 6.35278 112.541 6.54992C112.466 6.75886 112.429 6.97961 112.431 7.2018V7.22412C112.428 7.45223 112.465 7.67903 112.541 7.89384C112.609 8.0949 112.716 8.28018 112.856 8.43856C112.993 8.59235 113.16 8.71554 113.347 8.80021C113.549 8.89201 113.768 8.93775 113.989 8.93415C114.254 8.94025 114.516 8.87882 114.751 8.75556C114.984 8.62306 115.201 8.46266 115.397 8.27781L116.415 9.31366C116.123 9.64045 115.778 9.91649 115.397 10.1307C114.934 10.3578 114.423 10.4652 113.909 10.4433Z" fill="#1e202a"/>
<path d="M119.585 10.4209C119.3 10.4378 119.014 10.3919 118.748 10.2862C118.482 10.1806 118.242 10.0179 118.045 9.80926C117.66 9.33525 117.466 8.73302 117.5 8.12155V4.10319H119.24V7.54558C119.216 7.8813 119.314 8.21437 119.514 8.4832C119.613 8.59134 119.734 8.67594 119.868 8.73079C120.003 8.78564 120.149 8.80936 120.294 8.8002C120.441 8.80861 120.589 8.78463 120.727 8.7299C120.864 8.67518 120.988 8.59101 121.091 8.4832C121.302 8.21929 121.407 7.88417 121.383 7.54558V4.09872H123.118V10.3048H121.383V9.41188C121.281 9.54317 121.172 9.66839 121.055 9.78692C120.935 9.90735 120.803 10.0151 120.661 10.1084C120.511 10.2035 120.349 10.2772 120.179 10.3272C119.986 10.3878 119.787 10.4194 119.585 10.4209Z" fill="#1e202a"/>
<path d="M124.677 4.09874H126.417V4.99171C126.625 4.70443 126.887 4.46038 127.187 4.27287C127.533 4.06993 127.93 3.9708 128.33 3.98712C128.687 3.98816 129.04 4.05944 129.37 4.19696C129.705 4.33627 130.007 4.54636 130.255 4.81311C130.528 5.10292 130.74 5.44441 130.88 5.8177C131.044 6.25362 131.124 6.71754 131.114 7.18394V7.22413C131.125 7.69201 131.045 8.15746 130.88 8.59483C130.74 8.96609 130.531 9.30704 130.264 9.59942C130.016 9.86618 129.714 10.0763 129.379 10.2156C129.046 10.354 128.69 10.4253 128.33 10.4254C127.927 10.4421 127.528 10.3446 127.178 10.1441C126.891 9.97388 126.634 9.7566 126.417 9.5012V12.1354H124.677V4.09874ZM127.882 8.91183C128.081 8.91335 128.277 8.87225 128.458 8.79129C128.639 8.70941 128.802 8.59088 128.936 8.44303C129.078 8.2875 129.187 8.10546 129.259 7.90724C129.342 7.68165 129.383 7.44241 129.379 7.20181V7.17947C129.382 6.94187 129.341 6.70575 129.259 6.48296C129.186 6.28255 129.077 6.09776 128.936 5.93825C128.801 5.79311 128.638 5.67629 128.458 5.59446C128.277 5.5135 128.081 5.47239 127.882 5.4739C127.686 5.4694 127.491 5.50686 127.31 5.58382C127.129 5.66078 126.967 5.77548 126.833 5.92039C126.695 6.08138 126.588 6.26585 126.514 6.4651C126.432 6.68789 126.392 6.924 126.395 7.16161V7.22413C126.392 7.46316 126.433 7.70068 126.514 7.92511C126.586 8.1236 126.694 8.3068 126.833 8.46535C126.963 8.61397 127.123 8.73273 127.302 8.81361C127.485 8.89301 127.683 8.93257 127.882 8.9297V8.91183Z" fill="#1e202a"/>
<path d="M135.307 10.4433C134.872 10.4456 134.439 10.3669 134.032 10.2111C133.652 10.0649 133.305 9.84149 133.014 9.55476C132.731 9.27172 132.507 8.93479 132.354 8.56356C132.189 8.15252 132.106 7.71238 132.111 7.26876V7.22411C132.108 6.79834 132.185 6.37588 132.336 5.97842C132.476 5.59813 132.688 5.2492 132.961 4.95151C133.238 4.64815 133.576 4.4071 133.952 4.24403C134.328 4.08095 134.734 3.9995 135.143 4.00497C135.601 3.99384 136.056 4.08853 136.472 4.28179C136.834 4.45723 137.153 4.71194 137.406 5.02741C137.656 5.34526 137.842 5.70923 137.955 6.09898C138.074 6.50928 138.134 6.93491 138.132 7.36252C138.132 7.43396 138.132 7.5054 138.132 7.58576C138.132 7.66613 138.132 7.74204 138.132 7.82687H133.864C133.925 8.17746 134.109 8.49431 134.382 8.71984C134.666 8.9277 135.01 9.03451 135.36 9.02344C135.627 9.02846 135.892 8.97832 136.14 8.87611C136.4 8.75315 136.639 8.58883 136.848 8.38943L137.844 9.2824C137.562 9.64102 137.203 9.93097 136.795 10.1307C136.33 10.3518 135.821 10.4589 135.307 10.4433ZM136.432 6.72405C136.395 6.37102 136.249 6.03849 136.016 5.77304C135.903 5.65187 135.765 5.55681 135.612 5.49438C135.459 5.43195 135.295 5.40364 135.13 5.41139C134.966 5.40424 134.802 5.43238 134.649 5.49396C134.497 5.55554 134.359 5.64915 134.245 5.76857C134.005 6.03486 133.851 6.36788 133.802 6.72405H136.432Z" fill="#1e202a"/>
<path d="M139.438 4.09874H141.178V5.34444C141.334 4.95276 141.581 4.60499 141.9 4.33091C142.254 4.06326 142.694 3.93901 143.135 3.98265V5.81771H143.042C142.79 5.80329 142.538 5.84322 142.303 5.93485C142.068 6.02648 141.855 6.16768 141.678 6.34903C141.308 6.81496 141.129 7.4061 141.178 8.00101V10.287H139.438V4.09874Z" fill="#1e202a"/>
<path d="M145.942 10.4209C145.664 10.4214 145.388 10.3793 145.123 10.2959C144.878 10.2217 144.651 10.0987 144.454 9.93428C144.266 9.77125 144.114 9.56857 144.012 9.34045C143.897 9.0853 143.841 8.80766 143.848 8.52786V8.50106C143.838 8.19319 143.9 7.88738 144.029 7.60809C144.149 7.36643 144.323 7.15679 144.538 6.99641C144.773 6.8276 145.038 6.70491 145.318 6.63476C145.644 6.54764 145.981 6.50558 146.318 6.50974C146.593 6.50757 146.867 6.53149 147.137 6.58118C147.369 6.62587 147.596 6.68704 147.819 6.76424V6.66155C147.83 6.50482 147.805 6.34771 147.748 6.20171C147.69 6.0557 147.601 5.9245 147.487 5.8177C147.204 5.60685 146.855 5.50545 146.504 5.53194C146.207 5.52782 145.91 5.55627 145.619 5.61677C145.345 5.68196 145.076 5.76549 144.813 5.8668L144.37 4.52735C144.71 4.37773 145.063 4.25822 145.424 4.17017C145.859 4.06908 146.305 4.0226 146.752 4.03176C147.169 4.02104 147.586 4.08142 147.983 4.21035C148.299 4.31314 148.587 4.48895 148.824 4.72381C149.059 4.96054 149.232 5.25188 149.329 5.57212C149.439 5.9366 149.493 6.31617 149.488 6.69727V10.2691H147.806V9.59942C147.59 9.83866 147.33 10.0328 147.04 10.1709C146.697 10.335 146.322 10.4204 145.942 10.4209ZM146.469 9.20651C146.822 9.22519 147.171 9.11944 147.456 8.90736C147.58 8.81689 147.68 8.69795 147.748 8.56046C147.817 8.42298 147.852 8.27096 147.85 8.11709V7.80454C147.686 7.73234 147.516 7.677 147.341 7.63935C147.143 7.59489 146.941 7.57392 146.739 7.57685C146.429 7.55886 146.12 7.63506 145.853 7.79562C145.75 7.86404 145.666 7.95856 145.61 8.06979C145.554 8.18102 145.528 8.30509 145.535 8.42963V8.45195C145.53 8.5587 145.552 8.66493 145.597 8.76142C145.643 8.8579 145.711 8.94172 145.796 9.00559C145.994 9.14157 146.229 9.21181 146.469 9.20651Z" fill="#1e202a"/>
<path d="M153.871 10.4432C153.434 10.4474 153 10.3608 152.596 10.1888C152.219 10.0307 151.877 9.79899 151.589 9.50706C151.301 9.21513 151.073 8.86869 150.918 8.48765C150.758 8.09391 150.677 7.67203 150.679 7.24642V7.2241C150.677 6.79709 150.758 6.37384 150.918 5.97841C151.072 5.59605 151.297 5.24732 151.582 4.9515C151.872 4.65577 152.216 4.42058 152.596 4.25944C153.007 4.08578 153.448 3.99916 153.894 4.00496C154.389 3.98859 154.882 4.08313 155.337 4.28178C155.718 4.46869 156.059 4.72792 156.342 5.04526L155.279 6.1972C155.098 6.00607 154.892 5.83947 154.668 5.70159C154.426 5.57288 154.154 5.5098 153.88 5.51853C153.673 5.51563 153.469 5.5615 153.283 5.65248C153.103 5.73867 152.943 5.86187 152.813 6.01414C152.678 6.17195 152.573 6.35358 152.503 6.54991C152.43 6.75939 152.393 6.97977 152.393 7.20178V7.2241C152.392 7.45203 152.429 7.67845 152.503 7.89383C152.571 8.09489 152.678 8.28016 152.818 8.43854C152.955 8.59233 153.122 8.71552 153.309 8.80019C153.511 8.89158 153.73 8.93729 153.951 8.93413C154.216 8.94082 154.478 8.87936 154.713 8.75554C154.947 8.62419 155.164 8.46369 155.359 8.2778L156.377 9.31364C156.085 9.64043 155.741 9.91647 155.359 10.1307C154.897 10.3578 154.385 10.4652 153.871 10.4432Z" fill="#1e202a"/>
<path d="M157.546 1.8663H159.361V3.42453H157.546V1.8663ZM157.59 4.09872H159.33V10.3048H157.59V4.09872Z" fill="#1e202a"/>
<path d="M163.975 10.4433C163.52 10.4488 163.069 10.3638 162.647 10.1932C162.258 10.0372 161.903 9.80675 161.602 9.51458C161.306 9.22461 161.07 8.87869 160.907 8.4966C160.737 8.10216 160.651 7.67633 160.654 7.24643V7.22412C160.652 6.79426 160.737 6.36852 160.907 5.97397C161.072 5.59097 161.31 5.24381 161.606 4.95151C161.91 4.65508 162.268 4.42016 162.66 4.25946C163.081 4.08605 163.533 3.99953 163.988 4.00497C164.443 4.00046 164.894 4.08539 165.316 4.255C165.705 4.41102 166.06 4.64148 166.361 4.93365C166.657 5.22362 166.893 5.56954 167.056 5.95163C167.226 6.34607 167.312 6.7719 167.309 7.2018V7.22412C167.311 7.6554 167.225 8.08257 167.056 8.47873C166.891 8.86173 166.653 9.20889 166.357 9.50119C166.052 9.79668 165.694 10.0315 165.303 10.1932C164.881 10.365 164.43 10.45 163.975 10.4433ZM163.997 8.92969C164.228 8.93412 164.458 8.88843 164.67 8.79573C164.859 8.71231 165.028 8.58899 165.166 8.43408C165.304 8.27765 165.411 8.09571 165.48 7.89831C165.555 7.68937 165.593 7.46863 165.591 7.24643V7.22412C165.591 7.00165 165.552 6.78091 165.476 6.57225C165.402 6.37178 165.289 6.18814 165.144 6.032C164.997 5.87593 164.823 5.74875 164.63 5.65695C164.425 5.56238 164.201 5.5151 163.975 5.51854C163.745 5.51406 163.517 5.55976 163.306 5.6525C163.117 5.73592 162.948 5.85924 162.81 6.01415C162.672 6.17058 162.566 6.35252 162.496 6.54992C162.421 6.75886 162.384 6.9796 162.385 7.2018V7.22412C162.385 7.44806 162.424 7.67033 162.501 7.88045C162.575 8.08092 162.688 8.26455 162.833 8.42069C162.978 8.5767 163.15 8.70392 163.342 8.79573C163.547 8.88965 163.771 8.93544 163.997 8.92969ZM164.617 1.39304L166.118 2.04937L164.674 3.43793H163.346L164.617 1.39304Z" fill="#1e202a"/>
<path d="M168.566 4.09872H170.306V4.99168C170.405 4.85951 170.513 4.73421 170.629 4.61664C170.75 4.49511 170.884 4.38731 171.028 4.29517C171.176 4.19926 171.337 4.12557 171.506 4.0764C171.7 4.01669 171.901 3.98806 172.104 3.99156C172.388 3.97502 172.673 4.02116 172.939 4.12678C173.204 4.23241 173.443 4.39499 173.64 4.60324C174.025 5.07683 174.22 5.67936 174.185 6.29095V10.3093H172.445V6.86692C172.468 6.5312 172.371 6.19814 172.17 5.9293C172.072 5.82091 171.951 5.73614 171.816 5.68126C171.681 5.62639 171.536 5.60282 171.391 5.6123C171.244 5.60394 171.097 5.62796 170.96 5.68271C170.823 5.73745 170.7 5.8216 170.598 5.9293C170.387 6.19321 170.282 6.52833 170.306 6.86692V10.3093H168.566V4.09872Z" fill="#1e202a"/>
<path d="M175.216 11.4479C176.022 11.363 176.394 11.0014 176.332 10.3049H175.628V8.45642H177.47V10.0146C177.498 10.3117 177.464 10.6115 177.371 10.8945C177.277 11.1776 177.125 11.4376 176.925 11.6577C176.486 12.0196 175.929 12.2028 175.362 12.1712L175.216 11.4479Z" fill="#1e202a"/>
<path d="M51.0529 15.9886H48.6178V14.3679H55.2589V16.0065H52.8194V22.4448H51.0485L51.0529 15.9886Z" fill="#1e202a"/>
<path d="M56.4189 16.2431H58.1589V17.4932C58.3135 17.0996 58.5613 16.7501 58.8806 16.4753C59.2354 16.2092 59.676 16.0866 60.1159 16.1315V17.9665H60.0273C59.7751 17.9532 59.5228 17.9936 59.2871 18.0851C59.0514 18.1767 58.8374 18.3173 58.6592 18.4978C58.2895 18.9622 58.1104 19.5518 58.1589 20.1454V22.4313H56.4189V16.2431Z" fill="#1e202a"/>
<path d="M62.945 22.543C62.6675 22.5449 62.3913 22.5043 62.1259 22.4224C61.8803 22.3485 61.6526 22.2238 61.4574 22.0563C61.2686 21.8933 61.1175 21.6906 61.0146 21.4625C60.8986 21.2078 60.8411 20.9301 60.8464 20.6499V20.6186C60.8368 20.3103 60.9006 20.0041 61.0323 19.7256C61.1501 19.4829 61.3249 19.2729 61.5415 19.114C61.7748 18.9452 62.0377 18.8225 62.3163 18.7523C62.6433 18.6689 62.9796 18.6284 63.3169 18.6318C63.5914 18.6284 63.8656 18.6509 64.136 18.6987C64.3669 18.747 64.5946 18.8096 64.8178 18.8863V18.7836C64.8283 18.6269 64.804 18.4697 64.7465 18.3237C64.6891 18.1777 64.6 18.0465 64.4858 17.9397C64.2032 17.7273 63.8544 17.6243 63.5029 17.6495C63.2053 17.6461 62.9083 17.676 62.6174 17.7388C62.342 17.8017 62.0713 17.8838 61.8071 17.9844L61.3644 16.6449C61.7062 16.4992 62.0585 16.3798 62.4181 16.2877C62.8536 16.1873 63.2997 16.1408 63.7464 16.1493C64.1635 16.1415 64.5792 16.2018 64.9772 16.3279C65.2922 16.4333 65.5797 16.6088 65.8184 16.8414C66.0494 17.0802 66.2209 17.371 66.3187 17.6897C66.4308 18.0539 66.4861 18.4335 66.4825 18.8148V22.3867H64.8001V21.717C64.5839 21.9577 64.3219 22.152 64.0297 22.2885C63.6917 22.4543 63.3209 22.5413 62.945 22.543ZM63.4719 21.333C63.8259 21.3504 64.175 21.2431 64.4592 21.0294C64.5784 20.9384 64.6743 20.8201 64.739 20.6842C64.8037 20.5483 64.8353 20.3987 64.8311 20.248V19.9355C64.6675 19.8618 64.4969 19.8049 64.3219 19.7658C64.1261 19.7316 63.9273 19.7181 63.7287 19.7256C63.4187 19.7103 63.111 19.7864 62.8432 19.9444C62.7404 20.0135 62.6571 20.1081 62.6012 20.2192C62.5454 20.3303 62.5189 20.454 62.5244 20.5784V20.6052C62.5201 20.7124 62.5421 20.819 62.5884 20.9156C62.6347 21.0122 62.704 21.0957 62.79 21.1589C62.993 21.2889 63.232 21.35 63.4719 21.333Z" fill="#1e202a"/>
<path d="M67.979 16.2431H69.719V17.1361C69.8184 17.0013 69.928 16.8744 70.0466 16.7565C70.2939 16.5066 70.5978 16.3212 70.9321 16.2163C71.1264 16.1603 71.3278 16.1332 71.5298 16.1359C71.8153 16.119 72.1009 16.165 72.367 16.2706C72.6331 16.3762 72.8732 16.539 73.0706 16.7476C73.4525 17.2211 73.6452 17.8215 73.6107 18.4309V22.4492H71.8707V19.0068C71.897 18.6708 71.7993 18.3369 71.5962 18.0692C71.4983 17.9619 71.3781 17.8778 71.2441 17.823C71.1101 17.7682 70.9658 17.744 70.8214 17.7522C70.6739 17.745 70.5265 17.7695 70.3891 17.8241C70.2517 17.8788 70.1274 17.9623 70.0245 18.0692C69.8128 18.3331 69.7083 18.6682 69.7323 19.0068V22.4492H67.979V16.2431Z" fill="#1e202a"/>
<path d="M77.2589 22.543C76.3034 22.5376 75.3774 22.209 74.629 21.6098L75.3728 20.4534C75.679 20.6843 76.0159 20.8706 76.3734 21.0071C76.6711 21.1258 76.9876 21.1894 77.3076 21.1946C77.5008 21.2087 77.6937 21.1635 77.8611 21.0651C77.9165 21.0292 77.9619 20.9796 77.9929 20.921C78.0239 20.8623 78.0395 20.7967 78.0382 20.7302V20.7079C78.0384 20.6629 78.0295 20.6182 78.012 20.5767C77.9944 20.5353 77.9687 20.4979 77.9363 20.4668C77.8553 20.3902 77.7607 20.3296 77.6574 20.2882C77.5242 20.2322 77.3882 20.183 77.2501 20.1409L76.7675 19.9935C76.5483 19.9289 76.3325 19.8529 76.1211 19.7658C75.9084 19.6825 75.7098 19.5666 75.5322 19.422C75.3497 19.2797 75.1988 19.1002 75.0895 18.8952C74.9729 18.6599 74.9166 18.399 74.9257 18.1362V18.1094C74.9186 17.8332 74.974 17.5591 75.0875 17.3077C75.201 17.0563 75.3697 16.8342 75.5809 16.6583C75.7908 16.4837 76.0331 16.3531 76.2937 16.2743C76.5814 16.1897 76.8796 16.1476 77.1792 16.1493C77.5822 16.1508 77.9825 16.2156 78.3658 16.3413C78.7558 16.4623 79.1269 16.6382 79.4682 16.8637L78.8041 18.0781C78.5215 17.9114 78.2253 17.7695 77.9186 17.654C77.6736 17.5595 77.4148 17.5067 77.1527 17.4977C76.9827 17.4863 76.8136 17.5301 76.6701 17.6227C76.6209 17.6563 76.5807 17.7016 76.5529 17.7545C76.5251 17.8074 76.5106 17.8664 76.5107 17.9263C76.5115 17.9693 76.5209 18.0116 76.5384 18.0507C76.5559 18.0899 76.5811 18.125 76.6125 18.154C76.6958 18.2267 76.7881 18.2882 76.887 18.3371C77.0152 18.3996 77.1467 18.4547 77.2811 18.5023C77.4316 18.5603 77.591 18.6139 77.7592 18.6675C77.9275 18.7211 78.202 18.8193 78.4101 18.913C78.622 19.0045 78.8214 19.123 79.0033 19.2658C79.1827 19.4044 79.3331 19.5774 79.4461 19.7748C79.5632 19.9987 79.6212 20.2494 79.6143 20.5025C79.6226 20.8098 79.5621 21.1151 79.4372 21.3955C79.3256 21.6394 79.1551 21.8513 78.9413 22.0116C78.7164 22.1818 78.4608 22.3062 78.1887 22.3778C77.8879 22.4761 77.5749 22.5317 77.2589 22.543Z" fill="#1e202a"/>
<path d="M81.1507 17.7433H80.429V16.3011H81.1507V15.9082C81.1296 15.6378 81.1622 15.3658 81.2466 15.1082C81.3309 14.8506 81.4654 14.6126 81.6421 14.408C81.8325 14.2359 82.0552 14.1042 82.2971 14.0206C82.5389 13.937 82.795 13.9032 83.05 13.9214C83.2854 13.9203 83.5206 13.9352 83.754 13.966C83.9356 13.9951 84.1147 14.0384 84.2897 14.0955V15.551C84.1656 15.5048 84.0383 15.4675 83.909 15.4394C83.7736 15.411 83.6355 15.3975 83.4972 15.3992C83.0766 15.3992 82.8685 15.6225 82.8685 16.0689V16.3101H84.2764V17.7433H82.8906V22.4269H81.1507V17.7433Z" fill="#1e202a"/>
<path d="M88.2346 22.5653C87.7801 22.5723 87.3288 22.4888 86.9063 22.3197C86.5168 22.1637 86.1617 21.9316 85.8615 21.6366C85.5595 21.3429 85.3199 20.9904 85.157 20.6006C84.9941 20.2107 84.9115 19.7915 84.914 19.3685V19.3461C84.9108 18.9163 84.9968 18.4904 85.1664 18.096C85.331 17.7123 85.5687 17.365 85.8659 17.0735C86.1689 16.7756 86.5269 16.5405 86.9196 16.3815C87.3411 16.2081 87.7927 16.1216 88.2479 16.127C88.7022 16.1211 89.1534 16.2045 89.5761 16.3726C89.9648 16.5302 90.3196 16.7622 90.621 17.0557C90.9166 17.344 91.1529 17.6885 91.3161 18.0692C91.4836 18.4657 91.568 18.8929 91.564 19.3238C91.5687 19.7534 91.4843 20.1793 91.3161 20.574C91.1525 20.9582 90.9147 21.3058 90.6165 21.5964C90.3128 21.8934 89.955 22.1284 89.5628 22.2885C89.1429 22.4694 88.6912 22.5635 88.2346 22.5653ZM88.2346 21.0562C88.4658 21.0606 88.6953 21.0149 88.9075 20.9222C89.0968 20.8373 89.2659 20.7124 89.4034 20.5561C89.5434 20.401 89.6504 20.2187 89.7178 20.0203C89.7935 19.8116 89.831 19.5907 89.8285 19.3685V19.3461C89.8292 19.1237 89.7902 18.9028 89.7133 18.6943C89.64 18.4926 89.5274 18.3077 89.3822 18.1505C89.2369 17.9933 89.062 17.867 88.8677 17.779C88.6625 17.683 88.4386 17.6342 88.2124 17.6361C87.9826 17.6316 87.7546 17.6773 87.5439 17.7701C87.3546 17.855 87.1855 17.9799 87.048 18.1362C86.9081 18.2913 86.8011 18.4736 86.7337 18.672C86.6583 18.8808 86.6208 19.1016 86.623 19.3238C86.6222 19.5463 86.6612 19.7671 86.7381 19.9757C86.8121 20.1775 86.925 20.3627 87.0702 20.5204C87.2143 20.6774 87.3872 20.8048 87.5793 20.8954C87.7895 21.0028 88.0211 21.0608 88.2567 21.0651L88.2346 21.0562Z" fill="#1e202a"/>
<path d="M92.8258 16.2431H94.5658V17.4932C94.7188 17.0987 94.9668 16.7488 95.2875 16.4753C95.6422 16.2092 96.0829 16.0866 96.5227 16.1315V17.9665H96.4297C96.1775 17.9532 95.9253 17.9936 95.6896 18.0851C95.4538 18.1767 95.2399 18.3173 95.0617 18.4978C94.6935 18.9628 94.5161 19.5524 94.5658 20.1454V22.4313H92.8258V16.2431Z" fill="#1e202a"/>
<path d="M97.6075 16.2431H99.3475V17.1361C99.4482 17.0024 99.5577 16.8756 99.6751 16.7565C99.7932 16.6352 99.9255 16.5288 100.069 16.4395C100.22 16.3421 100.384 16.2669 100.556 16.2163C100.752 16.1603 100.955 16.1333 101.158 16.1359C101.523 16.1262 101.883 16.214 102.203 16.3904C102.497 16.5612 102.734 16.816 102.885 17.1227C103.125 16.8162 103.427 16.565 103.77 16.386C104.118 16.213 104.503 16.1272 104.891 16.1359C105.17 16.1202 105.45 16.1632 105.712 16.2624C105.974 16.3615 106.213 16.5146 106.414 16.7119C106.808 17.184 107.005 17.7925 106.963 18.4085V22.4269H105.223V18.9845C105.247 18.6501 105.153 18.3178 104.957 18.0469C104.864 17.9396 104.748 17.8552 104.617 17.8002C104.487 17.7453 104.345 17.7212 104.204 17.7299C104.06 17.7229 103.916 17.7477 103.782 17.8024C103.649 17.8572 103.528 17.9406 103.43 18.0469C103.225 18.3139 103.126 18.6479 103.151 18.9845V22.4269H101.411V18.9845C101.434 18.6509 101.342 18.3194 101.149 18.0469C101.055 17.9397 100.938 17.8555 100.807 17.8006C100.676 17.7457 100.534 17.7215 100.392 17.7299C100.249 17.7227 100.105 17.7473 99.9722 17.8021C99.8391 17.8569 99.7196 17.9404 99.622 18.0469C99.4134 18.3121 99.3122 18.6471 99.3386 18.9845V22.4269H97.5986L97.6075 16.2431Z" fill="#1e202a"/>
<path d="M110.217 22.543C109.939 22.5449 109.663 22.5043 109.398 22.4224C109.152 22.3485 108.924 22.2238 108.729 22.0563C108.54 21.8933 108.389 21.6906 108.286 21.4625C108.17 21.2078 108.113 20.9301 108.118 20.6499V20.6186C108.109 20.3103 108.172 20.0041 108.304 19.7257C108.422 19.4829 108.597 19.2729 108.813 19.114C109.047 18.9452 109.31 18.8225 109.588 18.7523C109.917 18.6687 110.254 18.6282 110.593 18.6318C110.866 18.6285 111.139 18.6509 111.408 18.6987C111.639 18.747 111.866 18.8096 112.09 18.8863V18.7836C112.1 18.6269 112.076 18.4697 112.018 18.3237C111.961 18.1777 111.872 18.0465 111.758 17.9397C111.475 17.7273 111.126 17.6243 110.775 17.6495C110.477 17.6461 110.18 17.676 109.889 17.7388C109.614 17.8017 109.343 17.8838 109.079 17.9844L108.636 16.6449C108.978 16.4992 109.33 16.3798 109.69 16.2877C110.125 16.1873 110.572 16.1408 111.018 16.1493C111.435 16.1415 111.851 16.2018 112.249 16.3279C112.564 16.4333 112.852 16.6088 113.09 16.8414C113.321 17.0802 113.493 17.371 113.591 17.6897C113.706 18.0594 113.763 18.4451 113.759 18.8327V22.4046H112.076V21.7348C111.86 21.9755 111.598 22.1699 111.306 22.3063C110.965 22.4666 110.593 22.5475 110.217 22.543ZM110.744 21.333C111.098 21.3504 111.447 21.2431 111.731 21.0294C111.85 20.9384 111.946 20.8201 112.011 20.6842C112.076 20.5483 112.107 20.3987 112.103 20.248V19.9355C111.94 19.861 111.769 19.8041 111.594 19.7658C111.397 19.7238 111.197 19.7028 110.996 19.7033C110.686 19.6864 110.378 19.7626 110.111 19.9221C110.006 19.99 109.922 20.0843 109.865 20.1955C109.808 20.3068 109.781 20.4311 109.787 20.5561V20.5829C109.783 20.6901 109.805 20.7967 109.851 20.8933C109.898 20.9899 109.967 21.0734 110.053 21.1365C110.257 21.2773 110.501 21.3463 110.748 21.333H110.744Z" fill="#1e202a"/>
<path d="M118.151 22.5653C117.727 22.5688 117.306 22.4877 116.914 22.3268C116.521 22.1659 116.163 21.9283 115.862 21.6277C115.577 21.3352 115.351 20.9894 115.198 20.6097C115.037 20.216 114.956 19.7941 114.959 19.3685V19.3462C114.957 18.9192 115.038 18.4959 115.198 18.1005C115.35 17.7173 115.575 17.3683 115.862 17.0736C116.15 16.7764 116.495 16.5411 116.876 16.3815C117.758 16.0341 118.739 16.0421 119.616 16.4038C119.998 16.5876 120.339 16.8455 120.621 17.1629L119.559 18.3193C119.38 18.1256 119.174 17.9587 118.948 17.8237C118.708 17.6918 118.437 17.627 118.164 17.6361C117.956 17.6325 117.749 17.6784 117.562 17.7701C117.383 17.8591 117.223 17.9836 117.093 18.1362C116.957 18.2938 116.852 18.4755 116.783 18.672C116.711 18.8816 116.675 19.1021 116.676 19.3238C116.675 19.5515 116.711 19.7779 116.783 19.9936C116.852 20.1925 116.959 20.3759 117.097 20.5338C117.235 20.6901 117.404 20.815 117.593 20.8999C117.793 20.9914 118.011 21.0371 118.231 21.0339C118.495 21.0388 118.757 20.9775 118.992 20.8553C119.227 20.7223 119.444 20.5603 119.638 20.3731L120.657 21.4134C120.365 21.74 120.021 22.0148 119.638 22.226C119.179 22.4647 118.667 22.5814 118.151 22.5653Z" fill="#1e202a"/>
<path d="M121.826 14.0017H123.654V15.56H121.826V14.0017ZM121.87 16.2342H123.61V22.418H121.87V16.2342Z" fill="#1e202a"/>
<path d="M128.259 22.5653C127.804 22.5712 127.353 22.4878 126.93 22.3197C126.541 22.1637 126.186 21.9316 125.886 21.6366C125.589 21.3491 125.353 21.0045 125.19 20.6231C125.024 20.2262 124.94 19.7993 124.943 19.3685V19.3461C124.94 18.9168 125.024 18.4914 125.19 18.096C125.355 17.7123 125.593 17.365 125.89 17.0735C126.194 16.7766 126.552 16.5416 126.944 16.3815C127.365 16.2082 127.817 16.1217 128.272 16.127C128.726 16.12 129.178 16.2035 129.6 16.3726C129.99 16.5313 130.346 16.7631 130.65 17.0557C130.942 17.3454 131.177 17.6896 131.34 18.0692C131.509 18.4654 131.595 18.8925 131.593 19.3238C131.596 19.7537 131.51 20.1795 131.34 20.574C131.177 20.9582 130.939 21.3058 130.641 21.5964C130.338 21.8944 129.98 22.1295 129.587 22.2885C129.167 22.4695 128.715 22.5637 128.259 22.5653ZM128.281 21.0562C128.511 21.0607 128.739 21.015 128.949 20.9222C129.139 20.8373 129.308 20.7124 129.445 20.5561C129.585 20.401 129.692 20.2187 129.76 20.0203C129.835 19.8116 129.873 19.5907 129.87 19.3685V19.3461C129.871 19.1236 129.832 18.9028 129.755 18.6943C129.681 18.4924 129.568 18.3073 129.423 18.1496C129.274 17.9887 129.094 17.8601 128.893 17.7718C128.693 17.6836 128.477 17.6374 128.259 17.6361C128.027 17.6317 127.798 17.6774 127.586 17.7701C127.396 17.855 127.227 17.9799 127.09 18.1362C126.95 18.2913 126.843 18.4736 126.775 18.672C126.7 18.8808 126.663 19.1016 126.665 19.3238C126.664 19.5463 126.703 19.7671 126.78 19.9757C126.854 20.1775 126.967 20.3626 127.112 20.5204C127.257 20.6764 127.43 20.8036 127.621 20.8954C127.826 20.9995 128.051 21.0574 128.281 21.0651V21.0562ZM128.896 13.5195L130.397 14.1759L128.932 15.56H127.603L128.896 13.5195Z" fill="#1e202a"/>
<path d="M132.845 16.2431H134.568V17.1361C134.667 17.0013 134.777 16.8744 134.895 16.7565C135.143 16.5066 135.447 16.3212 135.781 16.2163C135.975 16.1603 136.177 16.1332 136.379 16.1359C136.663 16.1185 136.949 16.1642 137.214 16.2699C137.48 16.3756 137.719 16.5386 137.915 16.7476C138.3 17.2194 138.495 17.8206 138.46 18.4309V22.4492H136.72V19.0068C136.746 18.6708 136.648 18.3369 136.445 18.0692C136.347 17.9619 136.227 17.8778 136.093 17.823C135.959 17.7682 135.815 17.744 135.67 17.7522C135.523 17.745 135.375 17.7695 135.238 17.8241C135.1 17.8788 134.976 17.9623 134.873 18.0692C134.662 18.3331 134.557 18.6682 134.581 19.0068V22.4492H132.841L132.845 16.2431Z" fill="#1e202a"/>
<path d="M51.6019 36C51.3157 36.0062 51.0303 35.9671 50.7562 35.8839C50.512 35.809 50.2772 35.7056 50.0567 35.5758L50.6411 34.3034C50.758 34.3757 50.8828 34.4342 51.013 34.4775C51.1324 34.5211 51.258 34.5452 51.3849 34.5489C51.5105 34.5547 51.6351 34.5237 51.7436 34.4596C51.8519 34.3772 51.9373 34.2681 51.9915 34.1426L49.5874 27.932H51.4292L52.8239 32.1468L54.1521 27.932H55.9585L53.6031 34.2676C53.505 34.5462 53.382 34.8152 53.2356 35.0713C53.1183 35.2733 52.9687 35.4543 52.7929 35.6071C52.6393 35.7455 52.4582 35.849 52.2616 35.9107C52.0467 35.9702 51.8248 36.0003 51.6019 36Z" fill="#1e202a"/>
<path d="M60.6294 26.039H64.2909C64.7146 26.0108 65.1396 26.0691 65.5405 26.2102C65.9413 26.3514 66.3099 26.5725 66.6242 26.8605C66.8578 27.1049 67.0393 27.395 67.1573 27.713C67.2754 28.0309 67.3275 28.3699 67.3104 28.7089V28.7312C67.3348 29.3025 67.1679 29.8655 66.8367 30.3297C66.5143 30.7382 66.0849 31.0476 65.597 31.2226L67.554 34.1069H65.4996L63.7862 31.5218H62.4004V34.1069H60.6294V26.039ZM64.1714 29.9635C64.5319 29.9889 64.8888 29.8775 65.172 29.651C65.2884 29.5479 65.3802 29.4198 65.4408 29.276C65.5013 29.1322 65.529 28.9766 65.5218 28.8205V28.7982C65.5328 28.6348 65.5052 28.4711 65.4413 28.3206C65.3774 28.17 65.2791 28.0368 65.1543 27.932C64.8561 27.7247 64.4975 27.6241 64.136 27.6463H62.4004V29.9635H64.1714Z" fill="#1e202a"/>
<path d="M71.6184 34.2587C71.1825 34.264 70.7497 34.1852 70.3433 34.0265C69.9607 33.8822 69.6123 33.6586 69.3205 33.3702C69.0335 33.0819 68.8063 32.7389 68.652 32.3612C68.4879 31.9482 68.4067 31.5067 68.4129 31.0619V31.0396C68.4106 30.6142 68.4857 30.192 68.6343 29.7939C68.777 29.4139 68.9887 29.0642 69.2585 28.7625C69.5294 28.471 69.8543 28.2358 70.2149 28.0705C70.6205 27.898 71.057 27.8113 71.4972 27.8159C71.9374 27.8205 72.3719 27.9163 72.7739 28.0972C73.1357 28.2697 73.4537 28.5232 73.7037 28.8384C73.956 29.1572 74.144 29.5228 74.2571 29.9144C74.3751 30.3251 74.4347 30.7505 74.4342 31.178C74.4342 31.245 74.4342 31.3209 74.4342 31.3968C74.4342 31.4727 74.4342 31.553 74.4342 31.6379H70.1662C70.2269 31.9897 70.4126 32.3071 70.6886 32.5308C70.9705 32.7428 71.3156 32.8515 71.6671 32.8389C71.9343 32.8416 72.1993 32.79 72.4463 32.6871C72.707 32.5646 72.9462 32.4003 73.1547 32.2004L74.1509 33.0934C73.8656 33.4507 73.5059 33.7404 73.0971 33.9417C72.6358 34.1631 72.1291 34.2717 71.6184 34.2587ZM72.7385 30.544C72.7023 30.1903 72.5585 29.8565 72.3268 29.5885C72.2138 29.4673 72.0762 29.3723 71.9233 29.3098C71.7705 29.2474 71.606 29.2191 71.4413 29.2268C71.277 29.22 71.1132 29.2483 70.9606 29.3098C70.808 29.3714 70.67 29.4648 70.5558 29.584C70.3154 29.8515 70.161 30.1862 70.113 30.544H72.7385Z" fill="#1e202a"/>
<path d="M77.8965 34.2364C76.9399 34.2253 76.0137 33.8956 75.2621 33.2988L76.006 32.1468C76.3132 32.376 76.6498 32.5622 77.0066 32.7005C77.3051 32.8155 77.6212 32.8775 77.9408 32.8835C78.1335 32.8993 78.3265 32.8557 78.4942 32.7585C78.5496 32.7226 78.595 32.673 78.626 32.6144C78.6571 32.5558 78.6726 32.4901 78.6713 32.4237V32.4013C78.6721 32.3555 78.6635 32.31 78.646 32.2677C78.6284 32.2255 78.6024 32.1873 78.5694 32.1558C78.488 32.0797 78.3935 32.0192 78.2905 31.9772C78.1575 31.922 78.0215 31.8743 77.8832 31.8343C77.7327 31.7896 77.5689 31.7405 77.405 31.6825C77.1838 31.6215 76.9665 31.5469 76.7542 31.4592C76.5423 31.3725 76.3439 31.2552 76.1653 31.111C75.9842 30.969 75.8335 30.7912 75.7226 30.5886C75.6066 30.3516 75.5503 30.0893 75.5588 29.8251V29.8028C75.5516 29.5255 75.6073 29.2503 75.7216 28.998C75.836 28.7458 76.0059 28.5232 76.2185 28.3472C76.427 28.1741 76.6679 28.0451 76.9269 27.9677C77.214 27.8807 77.5126 27.8385 77.8124 27.8427C78.2135 27.8449 78.6121 27.9081 78.9945 28.0302C79.3857 28.1538 79.7581 28.3311 80.1014 28.5571L79.4372 29.7671C79.1545 29.6019 78.8583 29.4615 78.5517 29.3474C78.3069 29.2526 78.048 29.1997 77.7858 29.1911C77.6164 29.179 77.4474 29.2212 77.3032 29.3117C77.2537 29.346 77.2133 29.392 77.1855 29.4457C77.1577 29.4994 77.1434 29.5592 77.1438 29.6197C77.1441 29.6621 77.1534 29.7039 77.171 29.7424C77.1885 29.7809 77.214 29.8152 77.2456 29.843C77.3284 29.9176 77.4207 29.9807 77.5201 30.0305C77.6495 30.0937 77.7826 30.1489 77.9186 30.1957L78.3924 30.3564C78.6049 30.4279 78.8351 30.5082 79.0432 30.6065C79.2568 30.6972 79.4578 30.8158 79.6409 30.9592C79.8182 31.0983 79.9683 31.2694 80.0836 31.4637C80.2039 31.6867 80.2635 31.9378 80.2563 32.1915V32.2272C80.2625 32.5343 80.2021 32.8391 80.0792 33.1202C79.9645 33.3634 79.7928 33.5749 79.5789 33.7363C79.353 33.9021 79.0996 34.0261 78.8307 34.1024C78.5269 34.1903 78.2125 34.2353 77.8965 34.2364Z" fill="#1e202a"/>
<path d="M81.5049 25.6952H83.3378V27.2534H81.5049V25.6952ZM81.5491 27.9276H83.2891V34.1159H81.5491V27.9276Z" fill="#1e202a"/>
<path d="M85.007 25.6952H86.7514V34.1203H85.0114L85.007 25.6952Z" fill="#1e202a"/>
<path d="M88.4161 25.6952H90.249V27.2534H88.4161V25.6952ZM88.4648 27.9276H90.2048V34.1159H88.4648V27.9276Z" fill="#1e202a"/>
<path d="M94.7473 34.2587C94.3101 34.2636 93.8759 34.1848 93.4678 34.0265C93.0871 33.881 92.7404 33.6575 92.4495 33.3702C92.1625 33.0819 91.9353 32.7389 91.781 32.3611C91.6169 31.9482 91.5357 31.5067 91.5419 31.0619V31.0396C91.5396 30.6142 91.6146 30.192 91.7633 29.7939C91.906 29.4139 92.1177 29.0642 92.3875 28.7625C92.6656 28.4586 93.0042 28.2172 93.381 28.0541C93.7579 27.891 94.1646 27.8098 94.5747 27.8159C95.033 27.8049 95.4877 27.9012 95.9029 28.0972C96.2642 28.2705 96.582 28.5239 96.8327 28.8384C97.0852 29.1564 97.2719 29.5223 97.3817 29.9144C97.5032 30.3244 97.5644 30.7501 97.5632 31.178C97.5632 31.2449 97.5632 31.3209 97.5632 31.3968C97.5632 31.4727 97.5632 31.553 97.5632 31.6378H93.2951C93.3559 31.9896 93.5416 32.3071 93.8176 32.5308C94.0995 32.7428 94.4446 32.8515 94.796 32.8389C95.0633 32.8416 95.3283 32.79 95.5753 32.6871C95.836 32.5646 96.0752 32.4002 96.2837 32.2004L97.2798 33.0934C96.9946 33.4507 96.6348 33.7403 96.2261 33.9417C95.7647 34.1631 95.2581 34.2717 94.7473 34.2587ZM95.8675 30.544C95.8313 30.1903 95.6874 29.8565 95.4557 29.5885C95.3428 29.4673 95.2051 29.3723 95.0523 29.3098C94.8994 29.2474 94.735 29.2191 94.5702 29.2268C94.406 29.22 94.2422 29.2483 94.0896 29.3098C93.937 29.3714 93.799 29.4648 93.6848 29.584C93.4444 29.8515 93.29 30.1862 93.242 30.544H95.8675Z" fill="#1e202a"/>
<path d="M98.856 27.932H100.592V28.825C100.694 28.6937 100.803 28.5685 100.919 28.45C101.039 28.3295 101.171 28.2218 101.313 28.1285C101.463 28.0334 101.626 27.9597 101.796 27.9097C101.988 27.8522 102.188 27.8236 102.389 27.8249C102.675 27.808 102.96 27.8539 103.226 27.9596C103.492 28.0652 103.732 28.228 103.93 28.4366C104.314 28.9106 104.509 29.5128 104.474 30.1243V34.1426H102.734V30.7002C102.758 30.3645 102.661 30.0315 102.46 29.7626C102.362 29.6545 102.241 29.5699 102.106 29.515C101.971 29.4602 101.826 29.4365 101.681 29.4456C101.533 29.4372 101.385 29.4612 101.248 29.5159C101.11 29.5707 100.986 29.6548 100.884 29.7626C100.672 30.0265 100.568 30.3616 100.592 30.7002V34.1426H98.856V27.932Z" fill="#1e202a"/>
<path d="M108.889 34.2587C108.451 34.2629 108.017 34.1762 107.613 34.0042C107.234 33.8452 106.889 33.6114 106.6 33.3166C106.314 33.0265 106.088 32.682 105.935 32.3031C105.775 31.9094 105.694 31.4875 105.696 31.0619V31.0396C105.688 30.1936 106.006 29.3773 106.582 28.7625C106.871 28.4668 107.216 28.2316 107.596 28.0705C108.006 27.8968 108.448 27.8102 108.893 27.816C109.389 27.7987 109.882 27.8949 110.336 28.0973C110.718 28.281 111.059 28.5389 111.341 28.8563L110.279 30.0127C110.098 29.8189 109.893 29.6507 109.668 29.5126C109.427 29.3843 109.157 29.3212 108.884 29.3296C108.676 29.3259 108.47 29.3718 108.282 29.4635C108.103 29.5513 107.944 29.6743 107.813 29.8251C107.678 29.983 107.572 30.1646 107.503 30.3609C107.431 30.5721 107.395 30.794 107.397 31.0173C107.395 31.2449 107.431 31.4712 107.503 31.687C107.57 31.8867 107.677 32.0705 107.817 32.2272C107.954 32.3824 108.121 32.5071 108.309 32.5933C108.511 32.6812 108.73 32.7253 108.951 32.7228C109.215 32.7299 109.478 32.6684 109.712 32.5442C109.947 32.4129 110.164 32.2524 110.359 32.0665L111.377 33.1068C111.084 33.432 110.74 33.7065 110.359 33.9194C109.904 34.1528 109.399 34.2694 108.889 34.2587Z" fill="#1e202a"/>
<path d="M112.555 25.6952H114.383V27.2534H112.555V25.6952ZM112.599 27.9276H114.339V34.1159H112.599V27.9276Z" fill="#1e202a"/>
<path d="M117.712 34.2364C117.436 34.2384 117.162 34.1977 116.898 34.1158C116.652 34.0384 116.424 33.9141 116.225 33.7497C116.036 33.5867 115.885 33.384 115.782 33.1559C115.668 32.9007 115.612 32.6231 115.618 32.3433V32.321C115.609 32.0131 115.671 31.7074 115.8 31.428C115.919 31.1863 116.094 30.9767 116.309 30.8163C116.544 30.6475 116.808 30.5248 117.088 30.4547C117.415 30.371 117.752 30.3305 118.089 30.3341C118.363 30.3308 118.638 30.3532 118.908 30.4011C119.139 30.4458 119.367 30.507 119.59 30.5842V30.4815C119.6 30.3248 119.575 30.1678 119.518 30.0218C119.461 29.8758 119.372 29.7446 119.258 29.6376C118.975 29.4268 118.626 29.3254 118.275 29.3519C117.977 29.3477 117.681 29.3762 117.389 29.4367C117.115 29.5012 116.846 29.5848 116.583 29.6867L116.141 28.3473C116.482 28.1996 116.834 28.0802 117.194 27.9901C117.63 27.889 118.076 27.8425 118.523 27.8517C118.94 27.841 119.356 27.9013 119.754 28.0303C120.069 28.1348 120.357 28.3104 120.595 28.5437C120.829 28.7811 121.002 29.0722 121.099 29.392C121.21 29.7565 121.264 30.1361 121.259 30.5172V34.0891H119.576V33.4193C119.361 33.6586 119.1 33.8528 118.81 33.9908C118.468 34.1552 118.092 34.2392 117.712 34.2364ZM118.239 33.022C118.594 33.0406 118.945 32.9349 119.231 32.7228C119.35 32.6309 119.446 32.5117 119.511 32.3751C119.576 32.2385 119.607 32.0883 119.603 31.937V31.6289C119.439 31.5558 119.269 31.4989 119.094 31.4593C118.896 31.4172 118.694 31.3963 118.492 31.3968C118.181 31.3782 117.873 31.4545 117.606 31.6155C117.503 31.6846 117.42 31.7792 117.364 31.8903C117.308 32.0014 117.282 32.1251 117.287 32.2495V32.2719C117.282 32.3787 117.303 32.4852 117.349 32.5818C117.395 32.6785 117.463 32.7622 117.549 32.8255C117.751 32.9659 117.994 33.035 118.239 33.022Z" fill="#1e202a"/>
</g>
<defs>
<clipPath id="clip0_1_56">
<rect width="177.47" height="36" fill="#1e202a"/>
</clipPath>
</defs>
</svg>
